<svg width="40" height="43" xmlns="http://www.w3.org/2000/svg" fill="none">
    <defs>
        <linearGradient id="paint0_linear" x1="-0.03306" y1="0.02811" x2="1.05554" y2="1.1167">
            <stop offset="0.15937" stop-color="#3BEA62"/>
            <stop offset="0.5404" stop-color="#3C99CC"/>
            <stop offset="0.93739" stop-color="#6B57FF"/>
        </linearGradient>
    </defs>
    <g>
        <title>Layer 1</title>
        <path d="m32.0845,7.94025l0,-3.94025l-8.0642,0l0,3.9896l-7.9913,0l0,-3.9896l-8.11347,0l0,3.94025l-3.91553,0l0,28.05975l12.0044,0l0,-3.9955c0.0014,-1.0588 0.423,-2.0737 1.1722,-2.8219c0.7492,-0.7481 1.7646,-1.1683 2.8234,-1.1683c1.0588,0 2.0743,0.4202 2.8234,1.1683c0.7492,0.7482 1.1708,1.7631 1.1722,2.8219l0,3.9955l12.0044,0l0,-28.05975l-3.9155,0z" fill="url(#paint0_linear)" id="svg_1"/>
        <path fill="none" stroke="#000" id="svg_2" d="m10.5,5c-1,1 -1.30745,2.18601 0,4c1.65381,2.29454 6.11351,6.9203 11,14c2.04811,2.96737 7.77195,12.11955 11,18c2.80591,5.11145 6.19028,11.88152 8,15c1.12234,1.934 1.38268,2.92388 1,2c-0.54119,-1.30656 -1.13081,-2.95797 -3,-9c-2.1516,-6.9549 -2.93839,-11.00706 -4,-20c-0.94519,-8.00666 -2.49972,-13.97503 -3,-29c-0.53245,-15.99114 0,-23 0,-34c0,-3 0.12218,-3.99251 0,-3c-0.50377,4.09221 -1.0285,7.99486 -3,19c-3.04403,16.99217 -5.66966,24.85623 -9,42c-2.5082,12.91158 -3.15122,21.29501 -7,31c-0.82432,2.07858 -3,3 -4,3c-1,0 -1,-5 -1,-11c0,-18 -0.04954,-40.00462 1,-51c1.90989,-20.00881 3.09789,-30.82443 5,-32c0.85065,-0.52573 2.49346,0.87856 3,4c0.96109,5.92253 1,18 1,35c0,9 -3,22 0,22c2,0 0,-6 0,-10c0,-7 0,-16 0,-19c0,-2 -0.17784,2.01019 1,21c0.86889,14.00875 4.835,42.01489 6,54c1.75217,18.02581 2,21 2,19c0,-6 -0.39491,-13.94975 -3,-36c-2.35825,-19.96093 -0.87856,-30.50654 -4,-30c-2.96126,0.48055 -0.43496,8.01353 0,15c0.50097,8.04668 2.33749,14.31001 4,17c1.48699,2.406 4.58579,5.41422 6,4c0.70711,-0.70711 2.19422,-7.00269 2,-14c-0.50019,-18.02082 -8.40162,-38.37769 -13,-45c-4.45464,-6.41531 -9.11587,-6.03617 -10,-3c-3.45831,11.87603 -4,31 -4,40c0,17 -0.68925,27.53493 1,29c2.38896,2.07193 6.28281,1.21887 7,0c3.69195,-6.27451 3,-22 3,-32c0,-17 1.2072,-24.64182 -1,-25c-1.39595,-0.22653 -1,6 -1,14c0,9 -0.89764,26.3214 2,33c4.64169,10.69835 13.29609,16.29957 16,15c5.77116,-2.77376 9.98537,-22.04867 9,-32c-2.00978,-20.29682 -11.297,-33.61384 -14,-36c-3.35266,-2.95967 -5.49874,2.94672 -6,10c-1.06334,14.96226 -0.95823,31.34802 2,38c3.83344,8.62002 14.0636,13.87128 20,13c10.32964,-1.51607 20.22131,-13.59485 22,-21c3.51107,-14.61754 -2.05113,-26.63125 -8,-29c-11.18732,-4.45463 -25.71748,3.3596 -31,10c-11.74628,14.76567 -14,30 -14,35c0,5 4.30448,6.53073 8,5c9.14594,-3.78837 13.72867,-22.88152 15,-33c2.3719,-18.87787 -0.67545,-31.49037 -5,-34c-6.97313,-4.04666 -17.13949,1.21056 -21,8c-8.9109,15.6715 -9.79668,33.2345 -8,40c2.06932,7.79217 12.36875,11.13343 17,9c16.17117,-7.44939 26.78733,-27.81501 29,-39c3.12919,-15.81797 -0.44735,-25.38463 -4,-26c-8.12522,-1.4074 -19.21905,13.42376 -23,23c-7.57082,19.17505 -7.57994,37.78381 -5,41c2.79834,3.48845 11.20715,2.17106 12,1c4.26962,-6.30637 4,-18 4,-24l-1,-9l-3,-1"/>
        <rect id="svg_3" height="57.59036" width="55.54216" y="-6.75301" x="-9.57831" stroke="#000" fill="#fff"/>
        <rect id="svg_4" height="0.12048" width="0.72289" y="11.56024" x="16.68675" stroke="#000" fill="#fff"/>
        <rect id="svg_5" height="0.12048" width="7.22892" y="11.43976" x="4.87952" stroke="#000" fill="#fff"/>
        <rect id="svg_6" height="0.84337" width="10.84337" y="11.07831" x="20.78313" stroke="#000" fill="#fff"/>
        <rect id="svg_7" height="3.85542" width="11.56626" y="23.60843" x="12.22891" stroke="#000" fill="#fff"/>
        <path id="svg_8" d="m6.29867,16.18988l1.10449,0l0.3413,-1.28856l0.3413,1.28856l1.10449,0l-0.89355,0.79637l0.34131,1.28856l-0.89355,-0.79639l-0.89355,0.79639l0.34131,-1.28856l-0.89355,-0.79637z" stroke="#000" fill="#fff"/>
        <path id="svg_9" d="m28.16698,18.85506l1.01245,0l0.31285,-1.19652l0.31285,1.19652l1.01245,0l-0.81908,0.73948l0.31287,1.19652l-0.81909,-0.7395l-0.81909,0.7395l0.31287,-1.19652l-0.81909,-0.73948z" stroke="#000" fill="#fff"/>
        <path id="svg_10" d="m63.24144,31.86548l0.56913,0l0.17587,-0.54067l0.17587,0.54067l0.56913,0l-0.46044,0.33415l0.17588,0.54067l-0.46044,-0.33416l-0.46044,0.33416l0.17588,-0.54067l-0.46044,-0.33415z" stroke="#000" fill="#fff"/>
    </g>
</svg>